<?xml version="1.0" encoding="UTF-8" standalone="no"?>
<svg
   xmlns:sketch="http://www.bohemiancoding.com/sketch/ns"
   xmlns:dc="http://purl.org/dc/elements/1.1/"
   xmlns:cc="http://creativecommons.org/ns#"
   xmlns:rdf="http://www.w3.org/1999/02/22-rdf-syntax-ns#"
   xmlns:svg="http://www.w3.org/2000/svg"
   xmlns="http://www.w3.org/2000/svg"
   xmlns:sodipodi="http://sodipodi.sourceforge.net/DTD/sodipodi-0.dtd"
   xmlns:inkscape="http://www.inkscape.org/namespaces/inkscape"
   width="60px"
   height="60px"
   viewBox="0 0 60 60"
   version="1.1"
   id="svg2"
   inkscape:version="0.91 r13725"
   sodipodi:docname="view-media-playlist.svg">
  <metadata
     id="metadata19">
    <rdf:RDF>
      <cc:Work
         rdf:about="">
        <dc:format>image/svg+xml</dc:format>
        <dc:type
           rdf:resource="http://purl.org/dc/dcmitype/StillImage" />
      </cc:Work>
    </rdf:RDF>
  </metadata>
  <sodipodi:namedview
     pagecolor="#ffffff"
     bordercolor="#666666"
     borderopacity="1"
     objecttolerance="10"
     gridtolerance="10"
     guidetolerance="10"
     inkscape:pageopacity="0"
     inkscape:pageshadow="2"
     inkscape:window-width="1280"
     inkscape:window-height="751"
     id="namedview17"
     showgrid="false"
     inkscape:zoom="6.95"
     inkscape:cx="32.292356"
     inkscape:cy="30"
     inkscape:window-x="0"
     inkscape:window-y="0"
     inkscape:window-maximized="1"
     inkscape:current-layer="path-1-link" />
  <title
     id="title4">Slice 1</title>
  <description>Created with Sketch (http://www.bohemiancoding.com/sketch)</description>
  <defs
     id="defs6" />
  <g
     id="Page-1"
     stroke="none"
     stroke-width="1"
     fill="none"
     fill-rule="evenodd"
     sketch:type="MSPage">
    <g
       id="track-icon"
       sketch:type="MSLayerGroup"
       transform="translate(-88.000000, -13.000000)">
      <g
         id="g10"
         sketch:type="MSShapeGroup">
        <g
           id="Path"
           transform="translate(92.000000, 13.000000)">
          <g
             id="path-1-link"
             transform="translate(25.000000, 30.000000) scale(1, -1) translate(-25.000000, -30.000000) "
             fill="#000000">
            <path
               d="m 2.5809845,12.789431 c 0.7968529,1.890511 2.3391488,3.654519 4.3569812,4.972254 2.0453881,1.337061 4.3606633,2.074993 6.5198783,2.074993 0.402093,0 0.782164,-0.03514 1.156721,-0.08433 -0.0055,3.744124 -0.01285,7.482968 -0.02387,11.213046 -0.01102,4.564634 -0.02019,9.118726 -0.02019,13.66579 0,0.806454 0.54898,1.519788 1.355017,1.75698 l 27.16828,8.029393 c 0.589372,0.172184 1.219148,0.07204 1.709373,-0.275846 0.488393,-0.346125 0.778492,-0.896059 0.778492,-1.479377 l 0,-0.897816 c 0.01102,-0.0615 0.01102,-0.122989 0.01102,-0.187997 l 0,-27.988691 c 0.506753,-1.135009 0.525114,-2.473828 0.141381,-3.842515 -0.08997,-0.576289 -0.251546,-1.159607 -0.497579,-1.744681 -0.796853,-1.89051 -2.344652,-3.656275 -4.358823,-4.972253 -2.045377,-1.338819 -4.364325,-2.074994 -6.518036,-2.074994 -2.372198,0 -4.305571,0.873219 -5.440261,2.461529 -1.131027,1.58831 -1.272399,3.712499 -0.381912,5.826146 0.795022,1.890501 2.342822,3.658032 4.360664,4.97401 2.041706,1.337062 4.360663,2.073236 6.518036,2.073236 0.225832,0 0.444329,-0.01406 0.659144,-0.03163 0.157901,0.02108 0.315813,0.04744 0.473705,0.05621 l 0,18.581829 -20.885253,-6.170523 0,-22.134424 c 1.099794,-2.465034 -0.01653,-5.878846 -2.84958,-8.5178297 -0.100988,-0.094877 -0.20564,-0.177455 -0.308459,-0.267061 C 16.382693,7.6959465 16.25784,7.5887708 16.129315,7.4833519 16.006303,7.3849611 15.874107,7.2918412 15.751086,7.1969643 15.475676,6.9878836 15.218626,6.7665042 14.923024,6.5749933 12.872143,5.2361746 10.558689,4.5 8.3994747,4.5 6.0272865,4.5 4.0957345,5.373219 2.9628863,6.9615289 1.8281971,8.5498388 1.6904872,10.674028 2.5809845,12.789431 l 0,0 z"
               id="path-1"
               style="fill:#f2f2f2;fill-opacity:1"
               inkscape:connector-curvature="0" />
          </g>
          <path
             d="M0.6602096,9.9473177 C1.5657243,12.2159302 3.3183333,14.3327396 5.6113247,15.9140215 C7.9356293,17.5184956 10.5666238,18.4040135 13.0202765,18.4040135 C13.4772011,18.4040135 13.9090996,18.361846 14.3347333,18.3028115 C14.3285018,22.7957606 14.3201338,27.2823735 14.307604,31.7584667 C14.2950854,37.2360273 14.2846587,42.7009378 14.2846587,48.1574147 C14.2846587,49.1251592 14.9084985,49.9811599 15.824451,50.2657906 L46.6975001,59.9010686 C47.3672415,60.1076895 48.0828958,59.987512 48.6399696,59.5700536 C49.1949624,59.1547035 49.5246199,58.4947819 49.5246199,57.7948011 L49.5246199,56.717421 C49.5371385,56.6436278 49.5371385,56.5698347 49.5371385,56.4918247 L49.5371385,22.9053961 C50.1129958,21.5433853 50.1338602,19.9368028 49.6977999,18.294378 C49.5955588,17.6028307 49.4119521,16.9028499 49.1323693,16.2007607 C48.2268546,13.9321482 46.4679917,11.8132304 44.1791622,10.2340568 C41.8548687,8.6274743 39.2197013,7.7440648 36.7723024,7.7440648 C34.0766227,7.7440648 31.8796076,8.7919276 30.590188,10.6978995 C29.3049303,12.6038713 29.14428,15.1528978 30.1561975,17.6892741 C31.0596313,19.9578755 32.8184942,22.0789128 35.1114966,23.6580863 C37.4316172,25.2625604 40.0667957,26.1459699 42.5183564,26.1459699 C42.7749829,26.1459699 43.0232747,26.1291029 43.2673826,26.1080192 C43.4468164,26.1333197 43.6262613,26.1649453 43.805684,26.1754761 L43.805684,48.4736711 L20.0724416,41.0690437 L20.0724416,14.5077348 C21.3222132,11.5496834 20.053658,7.4531089 16.8342876,4.2863283 C16.7195279,4.172476 16.6006064,4.0733823 16.4837658,3.9658551 C16.3439688,3.8351358 16.202091,3.7065249 16.0560402,3.5800223 C15.9162543,3.4619533 15.7660307,3.3502094 15.6262337,3.2363571 C15.3132678,2.9854603 15.0211663,2.719805 14.6852551,2.489992 C12.3547079,0.8834095 9.7257831,0 7.2721304,0 C4.5764619,0 2.3815165,1.0478628 1.094189,2.9538347 C-0.1952306,4.8598065 -0.3517191,7.408833 0.6602096,9.9473177 L0.6602096,9.9473177 Z"
             id="path15" />
        </g>
      </g>
    </g>
  </g>
</svg>
